<?xml version="1.0" encoding="UTF-8"?>
<svg width="120" height="40" viewBox="0 0 120 40" xmlns="http://www.w3.org/2000/svg">
  <g fill="none" fill-rule="evenodd">
    <path d="M28.5 9h-17C6.6 9 3 12.6 3 17.5v5C3 27.4 6.6 31 11.5 31h17c4.9 0 8.5-3.6 8.5-8.5v-5C37 12.6 33.4 9 28.5 9z" fill="#2C7BE5" fill-rule="nonzero"/>
    <path d="M22.8 15h-5.6c-2.8 0-5.2 2.3-5.2 5.2v4.6c0 2.8 2.3 5.2 5.2 5.2h5.6c2.8 0 5.2-2.3 5.2-5.2v-4.6c0-2.9-2.3-5.2-5.2-5.2zm-7.8 9c-1.1 0-2-.9-2-2s.9-2 2-2 2 .9 2 2-.9 2-2 2zm5 0c-1.1 0-2-.9-2-2s.9-2 2-2 2 .9 2 2-.9 2-2 2zm5 0c-1.1 0-2-.9-2-2s.9-2 2-2 2 .9 2 2-.9 2-2 2z" fill="#FFF" fill-rule="nonzero"/>
    <path d="M49.5 15.8h-2.7v8.7h2.7c2.8 0 4.5-1.8 4.5-4.4 0-2.5-1.7-4.3-4.5-4.3zm0 7.1h-1V17.4h1c2 0 3 1.3 3 2.7 0 1.5-1 2.8-3 2.8zm7-7.1h4.8v1.6h-3.1v1.8h2.8v1.6h-2.8v2h3.2v1.6h-4.9v-8.6zm8.2 5.3l-2.8-5.3h2l1.7 3.4 1.7-3.4h1.9l-2.8 5.3v3.3h-1.7v-3.3zm8.2 1.5c1.3 0 1.7-.8 1.7-1.5 0-.9-.6-1.3-1.7-1.7-1.2-.5-2.4-1-2.4-2.6s1.1-2.6 2.6-2.6c1.3 0 2.6.5 2.6 2.2h-1.7c0-.6-.4-.9-1-.9-.5 0-1 .3-1 1 0 .7.6 1 1.7 1.5 1.2.5 2.4 1 2.4 2.7 0 1.5-1.1 2.6-3.1 2.6-2 0-2.9-1.1-2.9-2.6h1.7c0 .9.7 1.3 1.7 1.3zm6.6-6.8h-2.5v-1.6h6.8v1.6h-2.5v7h-1.8v-7zm8 1.6c-1.7 0-2.9 1.3-2.9 3s1.2 3 2.9 3c1.7 0 2.9-1.3 2.9-3s-1.2-3-2.9-3zm0 7.5c-2.7 0-4.7-2-4.7-4.5s2-4.5 4.7-4.5c2.7 0 4.7 2 4.7 4.5s-2 4.5-4.7 4.5zm10.4-9.1v8.7h-1.8v-8.7h1.8zm8.1 0v8.7h-1.9l-3.5-5.7v5.7h-1.8v-8.7h1.9l3.5 5.7v-5.7h1.8zm3.1 0h4.8v1.6h-3.1v1.8h2.8v1.6h-2.8v2h3.2v1.6h-4.9v-8.6z" fill="#2C7BE5" fill-rule="nonzero"/>
  </g>
</svg>